# xmcd CD database file
#
# Track frame offsets:
#	150
#	24696
#	48103
#	65964
#	85637
#	107682
#	120477
#	142236
#	158438
#	185151
#
# Disc length: 2824 seconds
#
# Revision: 0
# Processed by: cddbd v1.5.1PL0 Copyright (c) Steve Scherf et al.
# Submitted via: CDex 1.51
#
DISCID=860b060a
DTITLE=FIRST DAY ACTION - DETOUR
DYEAR=2004
DGENRE=ロック (日本)
TTITLE0=just an excuse
TTITLE1=ten o'clock
TTITLE2=september
TTITLE3=dance is over
TTITLE4=fable
TTITLE5=butterfly
TTITLE6=elm
TTITLE7=bit
TTITLE8=preconception
TTITLE9=a day
EXTD=YEAR: 2004
EXTT0=
EXTT1=
EXTT2=
EXTT3=
EXTT4=
EXTT5=
EXTT6=
EXTT7=
EXTT8=
EXTT9=
PLAYORDER=
